<svg xmlns="http://www.w3.org/2000/svg" viewBox="0 0 800 520" width="800" height="520"><path fill="#8bd46a" d="M 78.5 82.0 C 78.9 89.4 103.8 103.8 102.8 108.7 C 101.9 113.5 76.7 110.8 71.5 116.2 C 66.3 121.5 70.9 145.3 66.1 146.5 C 61.4 147.8 44.2 128.1 38.0 125.0 C 31.7 121.9 25.9 126.0 22.0 124.3 C 18.0 122.7 14.7 115.7 10.1 113.7 C 5.5 111.6 -10.5 113.5 -10.8 109.7 C -11.1 105.9 6.1 91.5 8.3 86.8 C 10.4 82.1 6.3 80.5 4.5 76.5 C 2.6 72.4 -5.0 62.4 -4.6 58.1 C -4.3 53.8 3.8 50.7 7.1 46.3 C 10.3 41.9 14.2 25.5 18.3 26.9 C 22.5 28.3 30.4 56.0 36.4 56.3 C 42.3 56.6 54.0 31.4 60.4 28.9 C 66.8 26.4 75.9 34.8 81.6 38.7 C 87.2 42.5 100.6 50.2 100.2 56.4 C 99.7 62.5 78.1 74.6 78.5 82.0 Z"/><path fill="#8bd46a" d="M 50.6 110.7 Q 65.6 132.7 84.4 159.2 Q 67.4 131.5 53.4 108.9 Z"/><circle fill="#8bd46a" cx="84.2" cy="159.3" r="3.2"/><path fill="#8bd46a" d="M 62.5 99.1 Q 93.5 119.5 128.9 149.5 Q 95.2 115.9 65.2 93.6 Z"/><circle fill="#8bd46a" cx="137.5" cy="131.7" r="3.8"/><path fill="#8bd46a" d="M 46.7 112.7 Q 65.3 139.3 92.5 169.7 Q 68.0 138.0 51.0 110.6 Z"/><circle fill="#8bd46a" cx="80.9" cy="175.5" r="3.5"/><path fill="#8bd46a" d="M 65.0 70.3 Q 104.1 47.8 149.7 15.3 Q 103.3 45.8 63.7 67.2 Z"/><circle fill="#8bd46a" cx="155.7" cy="29.0" r="4.5"/><path fill="#8bd46a" d="M 66.6 88.2 Q 91.8 90.9 122.5 94.4 Q 92.2 87.6 67.2 83.0 Z"/><circle fill="#8bd46a" cx="122.8" cy="91.7" r="2.7"/><path fill="#8bd46a" d="M 61.3 63.1 Q 93.8 45.5 138.6 30.3 Q 91.5 42.8 57.8 58.8 Z"/><circle fill="#8bd46a" cx="121.6" cy="9.7" r="3.3"/><path fill="#8bd46a" d="M 42.3 114.2 Q 57.0 146.8 78.2 185.6 Q 60.0 145.8 47.1 112.5 Z"/><circle fill="#8bd46a" cx="70.3" cy="188.3" r="2.5"/><path fill="#8bd46a" d="M 43.3 113.8 Q 59.7 154.9 81.6 204.5 Q 61.7 154.3 46.4 112.8 Z"/><circle fill="#8bd46a" cx="77.0" cy="206.1" r="3.8"/><circle fill="#8bd46a" cx="15.1" cy="227.5" r="0.8"/><ellipse fill="#8bd46a" cx="29.3" cy="187.0" rx="12.4" ry="4.9" transform="rotate(74 29.3 187.0)"/><circle fill="#8bd46a" cx="80.5" cy="173.2" r="7.5"/><circle fill="#8bd46a" cx="90.7" cy="118.7" r="1.3"/><circle fill="#8bd46a" cx="32.6" cy="157.9" r="1.1"/><ellipse fill="#8bd46a" cx="105.3" cy="113.7" rx="17.2" ry="5.0" transform="rotate(31 105.3 113.7)"/><circle fill="#8bd46a" cx="-14.4" cy="125.8" r="3.5"/><circle fill="#8bd46a" cx="26.6" cy="145.5" r="1.4"/><ellipse fill="#8bd46a" cx="186.3" cy="92.7" rx="10.3" ry="3.7" transform="rotate(8 186.3 92.7)"/><circle fill="#8bd46a" cx="28.9" cy="154.2" r="1.5"/><circle fill="#8bd46a" cx="12.2" cy="195.5" r="0.9"/><circle fill="#8bd46a" cx="19.6" cy="35.7" r="1.7"/><ellipse fill="#8bd46a" cx="72.4" cy="25.5" rx="5.5" ry="2.2" transform="rotate(-45 72.4 25.5)"/><circle fill="#8bd46a" cx="109.7" cy="214.3" r="0.6"/><ellipse fill="#8bd46a" cx="227.3" cy="43.1" rx="4.2" ry="1.4" transform="rotate(-5 227.3 43.1)"/><ellipse fill="#8bd46a" cx="151.6" cy="135.3" rx="5.0" ry="1.6" transform="rotate(42 151.6 135.3)"/><circle fill="#8bd46a" cx="34.4" cy="210.5" r="0.8"/><circle fill="#8bd46a" cx="110.4" cy="202.3" r="0.7"/><ellipse fill="#8bd46a" cx="93.2" cy="109.5" rx="14.8" ry="4.2" transform="rotate(18 93.2 109.5)"/><circle fill="#8bd46a" cx="75.4" cy="247.1" r="0.7"/><circle fill="#8bd46a" cx="71.5" cy="47.9" r="3.6"/><ellipse fill="#8bd46a" cx="66.1" cy="167.0" rx="6.4" ry="2.1" transform="rotate(51 66.1 167.0)"/><circle fill="#8bd46a" cx="126.3" cy="72.2" r="5.6"/><circle fill="#8bd46a" cx="91.2" cy="161.7" r="2.2"/><circle fill="#8bd46a" cx="113.0" cy="124.1" r="4.4"/><circle fill="#8bd46a" cx="222.5" cy="132.4" r="1.3"/><circle fill="#8bd46a" cx="53.7" cy="33.3" r="1.4"/><circle fill="#8bd46a" cx="65.5" cy="131.1" r="8.2"/><ellipse fill="#8bd46a" cx="69.9" cy="48.3" rx="4.9" ry="1.7" transform="rotate(-54 69.9 48.3)"/><ellipse fill="#8bd46a" cx="15.0" cy="127.6" rx="16.2" ry="6.8" transform="rotate(132 15.0 127.6)"/><ellipse fill="#8bd46a" cx="111.2" cy="150.7" rx="8.8" ry="3.5" transform="rotate(27 111.2 150.7)"/><circle fill="#8bd46a" cx="68.0" cy="133.9" r="1.3"/><circle fill="#8bd46a" cx="86.3" cy="91.2" r="9.4"/><circle fill="#8bd46a" cx="161.8" cy="12.3" r="0.7"/><circle fill="#8bd46a" cx="133.6" cy="86.9" r="0.9"/><path fill="#f5a623" d="M 830.0 60.0 C 828.1 63.4 795.3 65.3 790.6 69.3 C 785.8 73.4 797.1 83.5 796.6 88.6 C 796.0 93.6 790.7 102.3 786.6 105.0 C 782.6 107.6 772.5 109.3 768.0 107.5 C 763.5 105.6 760.0 93.4 754.8 91.9 C 749.6 90.3 734.9 98.9 731.5 96.5 C 728.1 94.2 732.4 80.5 730.9 75.4 C 729.4 70.2 720.1 64.0 720.9 60.0 C 721.7 56.0 736.6 53.8 736.4 46.9 C 736.2 40.1 716.5 13.3 719.5 11.5 C 722.5 9.8 750.7 33.4 757.5 34.7 C 764.4 36.1 764.7 21.8 768.0 21.0 C 771.3 20.3 775.8 28.8 780.6 29.6 C 785.4 30.3 798.6 23.9 801.9 26.1 C 805.2 28.3 799.9 40.3 803.9 45.1 C 807.9 49.9 831.9 56.6 830.0 60.0 Z"/><path fill="#f5a623" d="M 767.9 96.0 Q 773.9 126.6 786.0 163.7 Q 776.2 126.5 771.5 95.9 Z"/><circle fill="#f5a623" cx="772.9" cy="164.3" r="3.6"/><path fill="#f5a623" d="M 755.3 26.1 Q 734.1 -4.7 702.6 -39.7 Q 730.2 -2.8 749.3 29.1 Z"/><circle fill="#f5a623" cx="716.5" cy="-46.4" r="3.0"/><path fill="#f5a623" d="M 731.9 58.9 Q 681.0 53.8 618.3 39.0 Q 681.1 57.5 732.2 64.6 Z"/><circle fill="#f5a623" cx="619.7" cy="67.3" r="3.0"/><path fill="#f5a623" d="M 737.3 79.2 Q 703.3 101.6 659.5 126.1 Q 706.2 105.3 741.8 84.9 Z"/><circle fill="#f5a623" cx="668.2" cy="137.3" r="5.9"/><path fill="#f5a623" d="M 766.8 96.1 Q 767.9 115.7 769.6 139.7 Q 770.9 115.6 771.5 95.9 Z"/><circle fill="#f5a623" cx="770.6" cy="139.6" r="5.7"/><path fill="#f5a623" d="M 744.8 87.7 Q 725.3 124.8 706.5 173.9 Q 728.1 126.8 749.2 90.8 Z"/><circle fill="#f5a623" cx="693.1" cy="164.2" r="4.1"/><path fill="#f5a623" d="M 776.3 95.1 Q 783.3 134.3 786.4 183.8 Q 786.3 133.3 781.0 93.6 Z"/><circle fill="#f5a623" cx="804.6" cy="178.2" r="3.9"/><path fill="#f5a623" d="M 746.4 88.9 Q 727.6 132.2 712.6 190.5 Q 729.6 133.5 749.4 90.9 Z"/><circle fill="#f5a623" cx="690.2" cy="175.4" r="4.4"/><circle fill="#f5a623" cx="734.4" cy="126.4" r="1.2"/><ellipse fill="#f5a623" cx="780.7" cy="176.0" rx="4.3" ry="1.4" transform="rotate(68 780.7 176.0)"/><circle fill="#f5a623" cx="749.7" cy="119.0" r="1.3"/><ellipse fill="#f5a623" cx="766.6" cy="205.2" rx="13.4" ry="4.4" transform="rotate(108 766.6 205.2)"/><ellipse fill="#f5a623" cx="793.8" cy="172.4" rx="15.3" ry="6.0" transform="rotate(94 793.8 172.4)"/><circle fill="#f5a623" cx="709.9" cy="-9.6" r="2.7"/><ellipse fill="#f5a623" cx="724.4" cy="137.0" rx="16.4" ry="5.6" transform="rotate(119 724.4 137.0)"/><circle fill="#f5a623" cx="744.5" cy="203.0" r="6.3"/><circle fill="#f5a623" cx="623.2" cy="121.3" r="0.7"/><circle fill="#f5a623" cx="708.7" cy="255.3" r="3.8"/><circle fill="#f5a623" cx="605.4" cy="143.6" r="1.6"/><ellipse fill="#f5a623" cx="697.4" cy="62.5" rx="14.5" ry="4.8" transform="rotate(168 697.4 62.5)"/><circle fill="#f5a623" cx="753.0" cy="160.6" r="6.7"/><circle fill="#f5a623" cx="755.2" cy="122.8" r="3.3"/><circle fill="#f5a623" cx="818.7" cy="40.0" r="11.3"/><circle fill="#f5a623" cx="580.8" cy="91.1" r="0.6"/><circle fill="#f5a623" cx="624.4" cy="-17.7" r="0.6"/><circle fill="#f5a623" cx="786.6" cy="126.5" r="8.8"/><circle fill="#f5a623" cx="632.7" cy="25.4" r="0.8"/><circle fill="#f5a623" cx="712.6" cy="34.8" r="1.3"/><circle fill="#f5a623" cx="734.4" cy="13.9" r="1.5"/><circle fill="#f5a623" cx="717.6" cy="43.2" r="2.3"/><ellipse fill="#f5a623" cx="721.5" cy="123.3" rx="3.8" ry="1.2" transform="rotate(136 721.5 123.3)"/><circle fill="#f5a623" cx="680.2" cy="114.0" r="1.1"/><circle fill="#f5a623" cx="683.9" cy="100.7" r="1.8"/><circle fill="#f5a623" cx="736.7" cy="121.2" r="2.7"/><circle fill="#f5a623" cx="739.5" cy="152.0" r="3.6"/><ellipse fill="#f5a623" cx="811.8" cy="262.0" rx="8.6" ry="2.4" transform="rotate(71 811.8 262.0)"/><circle fill="#f5a623" cx="745.5" cy="164.0" r="1.0"/><ellipse fill="#f5a623" cx="702.1" cy="175.9" rx="6.8" ry="2.5" transform="rotate(136 702.1 175.9)"/><circle fill="#f5a623" cx="580.2" cy="-9.4" r="1.9"/><circle fill="#f5a623" cx="677.4" cy="47.7" r="1.3"/><path fill="#a78bea" d="M 90.3 470.0 C 88.7 473.1 77.4 474.1 78.3 479.0 C 79.1 483.9 96.3 499.9 96.4 504.6 C 96.6 509.3 85.1 514.1 79.5 512.1 C 74.0 510.1 61.5 490.6 57.2 490.4 C 52.8 490.2 50.9 509.9 48.6 510.6 C 46.3 511.3 44.4 496.8 40.9 495.4 C 37.3 494.0 25.8 502.3 23.8 500.6 C 21.8 499.0 27.5 487.1 27.0 483.5 C 26.6 479.9 21.8 477.9 20.6 475.2 C 19.4 472.5 16.6 466.6 18.4 464.4 C 20.2 462.2 30.8 461.4 33.4 460.0 C 36.1 458.5 38.2 460.6 37.4 454.1 C 36.6 447.7 25.8 415.5 27.6 414.3 C 29.3 413.0 45.0 443.5 50.0 445.3 C 55.0 447.2 57.3 431.7 62.9 427.0 C 68.5 422.4 86.6 410.0 89.5 412.6 C 92.4 415.3 83.4 439.3 83.4 445.6 C 83.4 451.9 88.5 453.7 89.5 457.1 C 90.5 460.6 91.9 466.9 90.3 470.0 Z"/><path fill="#a78bea" d="M 46.2 441.7 Q 43.1 423.5 41.3 400.6 Q 40.9 424.1 42.7 442.7 Z"/><circle fill="#a78bea" cx="33.8" cy="402.7" r="2.1"/><path fill="#a78bea" d="M 71.3 448.4 Q 97.5 423.3 135.4 396.9 Q 94.6 421.2 66.7 445.1 Z"/><circle fill="#a78bea" cx="115.8" cy="382.6" r="3.2"/><path fill="#a78bea" d="M 48.0 441.3 Q 42.2 411.0 37.1 373.4 Q 38.5 411.9 42.2 442.8 Z"/><circle fill="#a78bea" cx="28.6" cy="375.5" r="3.0"/><path fill="#a78bea" d="M 66.6 445.1 Q 84.0 412.0 106.4 372.1 Q 81.5 410.8 62.7 443.2 Z"/><circle fill="#a78bea" cx="101.2" cy="369.6" r="4.3"/><path fill="#a78bea" d="M 72.5 490.4 Q 96.7 510.7 126.6 535.4 Q 98.6 508.6 75.3 487.1 Z"/><circle fill="#a78bea" cx="127.3" cy="534.5" r="3.5"/><path fill="#a78bea" d="M 75.0 452.5 Q 85.5 437.0 95.2 414.5 Q 83.6 434.9 72.0 449.2 Z"/><circle fill="#a78bea" cx="103.6" cy="424.0" r="3.6"/><path fill="#a78bea" d="M 62.3 442.9 Q 73.8 416.1 92.5 384.5 Q 70.1 415.1 56.6 441.4 Z"/><circle fill="#a78bea" cx="76.0" cy="380.1" r="2.4"/><ellipse fill="#a78bea" cx="29.6" cy="338.3" rx="2.8" ry="1.0" transform="rotate(-110 29.6 338.3)"/><circle fill="#a78bea" cx="113.7" cy="465.2" r="6.3"/><circle fill="#a78bea" cx="123.9" cy="538.4" r="5.6"/><circle fill="#a78bea" cx="-1.6" cy="316.5" r="3.1"/><circle fill="#a78bea" cx="63.4" cy="428.9" r="1.1"/><circle fill="#a78bea" cx="88.8" cy="439.1" r="2.0"/><circle fill="#a78bea" cx="15.2" cy="369.3" r="0.8"/><circle fill="#a78bea" cx="117.2" cy="361.3" r="0.8"/><circle fill="#a78bea" cx="101.7" cy="514.5" r="1.3"/><circle fill="#a78bea" cx="26.4" cy="374.9" r="0.8"/><ellipse fill="#a78bea" cx="97.7" cy="458.9" rx="3.3" ry="1.3" transform="rotate(-27 97.7 458.9)"/><circle fill="#a78bea" cx="78.1" cy="536.1" r="0.9"/><circle fill="#a78bea" cx="132.6" cy="452.6" r="0.8"/><circle fill="#a78bea" cx="125.2" cy="447.0" r="1.3"/><circle fill="#a78bea" cx="117.8" cy="494.7" r="0.9"/><circle fill="#a78bea" cx="100.5" cy="450.6" r="1.0"/><circle fill="#a78bea" cx="116.3" cy="474.5" r="1.0"/><ellipse fill="#a78bea" cx="90.1" cy="400.7" rx="12.5" ry="4.9" transform="rotate(-71 90.1 400.7)"/><circle fill="#a78bea" cx="56.1" cy="425.8" r="3.9"/><circle fill="#a78bea" cx="57.3" cy="372.3" r="0.7"/><circle fill="#a78bea" cx="94.0" cy="463.3" r="1.1"/><circle fill="#a78bea" cx="197.1" cy="413.5" r="0.6"/><circle fill="#a78bea" cx="200.1" cy="398.5" r="0.6"/><circle fill="#a78bea" cx="8.8" cy="460.7" r="1.3"/><ellipse fill="#a78bea" cx="16.1" cy="442.2" rx="3.5" ry="1.1" transform="rotate(-125 16.1 442.2)"/><circle fill="#a78bea" cx="173.6" cy="483.5" r="3.3"/><path fill="#e879b8" d="M 789.9 478.0 C 789.8 480.5 779.8 483.6 778.3 486.6 C 776.8 489.6 780.9 497.4 779.3 499.2 C 777.6 501.0 769.5 497.3 766.7 499.6 C 763.9 501.9 762.5 513.4 759.5 515.6 C 756.5 517.8 748.4 517.1 745.4 515.1 C 742.4 513.1 740.4 504.5 738.3 501.4 C 736.2 498.4 738.7 494.9 730.9 493.5 C 723.1 492.1 684.0 494.6 683.3 491.6 C 682.6 488.6 725.2 480.1 726.2 472.4 C 727.2 464.7 693.1 445.7 690.4 437.4 C 687.7 429.0 700.0 414.8 707.3 413.5 C 714.6 412.2 734.0 428.0 741.8 428.0 C 749.5 427.9 757.6 410.7 762.0 412.9 C 766.5 415.1 769.5 438.4 773.2 443.5 C 776.9 448.5 787.3 445.0 788.2 448.6 C 789.1 452.3 779.0 464.8 779.3 469.0 C 779.5 473.1 790.1 475.5 789.9 478.0 Z"/><path fill="#e879b8" d="M 766.8 446.6 Q 772.4 429.4 780.1 408.5 Q 770.3 428.8 763.4 445.7 Z"/><circle fill="#e879b8" cx="776.2" cy="407.4" r="3.2"/><path fill="#e879b8" d="M 742.6 447.6 Q 717.8 420.3 679.1 391.4 Q 714.8 421.9 737.9 450.1 Z"/><circle fill="#e879b8" cx="702.3" cy="378.8" r="3.1"/><path fill="#e879b8" d="M 733.3 453.8 Q 699.9 421.4 659.7 381.1 Q 698.1 423.3 730.5 456.7 Z"/><circle fill="#e879b8" cx="656.7" cy="384.3" r="3.8"/><path fill="#e879b8" d="M 735.7 451.7 Q 703.5 426.1 658.9 399.5 Q 701.0 428.3 731.8 455.2 Z"/><circle fill="#e879b8" cx="673.1" cy="386.7" r="3.0"/><path fill="#e879b8" d="M 725.8 492.0 Q 713.0 504.0 699.5 522.4 Q 715.0 507.5 728.9 497.4 Z"/><circle fill="#e879b8" cx="694.5" cy="513.8" r="2.4"/><path fill="#e879b8" d="M 744.5 446.9 Q 725.8 406.9 701.8 358.6 Q 723.7 407.8 741.2 448.3 Z"/><circle fill="#e879b8" cx="704.0" cy="357.7" r="3.1"/><path fill="#e879b8" d="M 728.1 460.0 Q 691.9 438.7 648.7 410.6 Q 690.2 441.8 725.5 464.8 Z"/><circle fill="#e879b8" cx="644.5" cy="418.6" r="5.1"/><path fill="#e879b8" d="M 744.7 446.8 Q 724.4 418.1 692.8 386.1 Q 721.6 419.4 740.3 448.7 Z"/><circle fill="#e879b8" cx="711.3" cy="377.8" r="5.4"/><ellipse fill="#e879b8" cx="644.5" cy="495.6" rx="9.7" ry="3.3" transform="rotate(170 644.5 495.6)"/><ellipse fill="#e879b8" cx="692.7" cy="439.6" rx="4.4" ry="1.5" transform="rotate(221 692.7 439.6)"/><circle fill="#e879b8" cx="672.5" cy="465.2" r="3.2"/><circle fill="#e879b8" cx="621.2" cy="325.5" r="0.7"/><circle fill="#e879b8" cx="760.0" cy="427.5" r="1.3"/><circle fill="#e879b8" cx="557.8" cy="512.0" r="1.6"/><circle fill="#e879b8" cx="586.6" cy="417.7" r="4.7"/><ellipse fill="#e879b8" cx="611.1" cy="334.4" rx="10.8" ry="3.1" transform="rotate(212 611.1 334.4)"/><ellipse fill="#e879b8" cx="712.5" cy="505.0" rx="10.7" ry="3.6" transform="rotate(154 712.5 505.0)"/><ellipse fill="#e879b8" cx="806.6" cy="435.9" rx="4.3" ry="1.3" transform="rotate(330 806.6 435.9)"/><circle fill="#e879b8" cx="724.9" cy="418.6" r="1.2"/><circle fill="#e879b8" cx="702.5" cy="466.2" r="5.7"/><circle fill="#e879b8" cx="625.5" cy="328.4" r="5.1"/><circle fill="#e879b8" cx="686.7" cy="468.7" r="2.0"/><circle fill="#e879b8" cx="708.9" cy="385.8" r="1.2"/><ellipse fill="#e879b8" cx="589.5" cy="421.5" rx="5.5" ry="2.2" transform="rotate(211 589.5 421.5)"/><circle fill="#e879b8" cx="769.8" cy="431.6" r="1.3"/><circle fill="#e879b8" cx="706.8" cy="481.3" r="1.3"/><circle fill="#e879b8" cx="674.2" cy="438.1" r="8.9"/><circle fill="#e879b8" cx="721.1" cy="432.7" r="1.2"/><circle fill="#e879b8" cx="694.4" cy="438.7" r="1.1"/><circle fill="#e879b8" cx="747.5" cy="415.7" r="6.2"/><circle fill="#e879b8" cx="730.4" cy="419.1" r="1.2"/><circle fill="#e879b8" cx="637.0" cy="393.3" r="3.1"/><circle fill="#e879b8" cx="701.6" cy="324.9" r="1.3"/><circle fill="#e879b8" cx="663.6" cy="398.1" r="5.4"/><circle fill="#e879b8" cx="692.1" cy="412.9" r="3.3"/><ellipse fill="#e879b8" cx="727.4" cy="399.8" rx="3.8" ry="1.5" transform="rotate(257 727.4 399.8)"/><circle fill="#e879b8" cx="691.0" cy="515.1" r="1.9"/><path fill="#e879b8" d="M 339.4 6.0 C 339.5 7.2 343.1 9.5 342.9 10.4 C 342.7 11.3 339.1 11.7 338.1 12.3 C 337.1 12.9 336.4 13.6 335.8 14.8 C 335.1 16.0 334.8 19.8 333.8 20.9 C 332.8 22.0 329.7 23.3 328.6 22.4 C 327.6 21.5 328.3 14.5 326.2 14.7 C 324.1 14.9 314.3 24.4 313.6 23.8 C 313.0 23.2 320.5 12.8 321.7 10.5 C 322.9 8.1 322.9 8.2 322.2 7.3 C 321.5 6.4 317.9 5.2 316.9 3.8 C 315.8 2.4 313.8 -1.5 314.6 -2.3 C 315.4 -3.2 321.2 -1.6 322.7 -2.0 C 324.2 -2.3 324.3 -4.7 325.2 -4.9 C 326.1 -5.2 328.3 -4.4 329.2 -3.7 C 330.1 -3.0 330.6 -0.2 331.6 -0.3 C 332.6 -0.3 335.5 -3.8 336.5 -3.9 C 337.5 -4.0 337.9 -1.5 338.7 -0.7 C 339.5 0.1 342.0 0.9 342.1 1.8 C 342.2 2.8 339.3 4.8 339.4 6.0 Z"/><path fill="#e879b8" d="M 333.7 16.2 Q 337.2 30.5 338.6 49.2 Q 338.1 30.0 335.2 15.5 Z"/><circle fill="#e879b8" cx="347.7" cy="45.1" r="1.6"/><path fill="#e879b8" d="M 332.7 16.5 Q 334.6 28.0 335.3 42.6 Q 335.4 27.7 333.8 16.1 Z"/><circle fill="#e879b8" cx="341.0" cy="40.8" r="1.8"/><path fill="#e879b8" d="M 334.9 15.7 Q 342.1 28.8 350.0 45.3 Q 343.3 28.0 336.8 14.5 Z"/><circle fill="#e879b8" cx="353.7" cy="43.0" r="1.3"/><circle fill="#e879b8" cx="309.1" cy="16.6" r="0.9"/><circle fill="#e879b8" cx="340.1" cy="38.7" r="0.6"/><circle fill="#e879b8" cx="350.2" cy="32.2" r="0.6"/><circle fill="#e879b8" cx="357.4" cy="-2.2" r="0.6"/><circle fill="#e879b8" cx="342.6" cy="18.4" r="0.6"/><circle fill="#e879b8" cx="312.0" cy="9.6" r="0.6"/><circle fill="#e879b8" cx="341.8" cy="16.6" r="0.6"/><circle fill="#e879b8" cx="327.0" cy="29.5" r="0.6"/><circle fill="#e879b8" cx="341.7" cy="-4.6" r="0.6"/><circle fill="#e879b8" cx="362.9" cy="-1.6" r="0.6"/><circle fill="#e879b8" cx="314.1" cy="67.2" r="0.6"/><circle fill="#e879b8" cx="347.9" cy="38.6" r="2.0"/><circle fill="#e879b8" cx="353.6" cy="10.9" r="0.6"/><ellipse fill="#e879b8" cx="313.8" cy="29.0" rx="3.9" ry="1.2" transform="rotate(135 313.8 29.0)"/><path fill="#8bd46a" d="M 525.8 514.0 C 525.7 514.8 514.2 516.0 512.0 516.5 C 509.8 517.1 509.9 516.7 510.0 518.2 C 510.1 519.7 513.1 526.0 512.7 527.3 C 512.3 528.7 508.7 528.4 507.4 527.5 C 506.1 526.7 505.3 521.1 503.7 521.3 C 502.1 521.5 497.3 529.1 496.3 529.1 C 495.3 529.0 497.5 522.4 496.6 521.0 C 495.8 519.6 490.9 520.3 490.4 519.3 C 489.8 518.3 491.9 515.2 492.7 514.0 C 493.6 512.8 496.2 512.2 496.5 510.9 C 496.7 509.6 494.0 506.2 494.2 504.9 C 494.4 503.6 496.8 502.7 498.0 501.8 C 499.1 500.9 500.7 500.6 502.3 498.9 C 503.9 497.1 507.3 490.1 509.4 489.2 C 511.5 488.4 516.5 490.5 517.1 493.1 C 517.6 495.6 513.9 504.5 513.3 507.1 C 512.6 509.6 510.9 510.2 512.7 511.2 C 514.5 512.2 525.9 513.2 525.8 514.0 Z"/><path fill="#8bd46a" d="M 495.5 510.6 Q 487.6 509.5 477.8 509.4 Q 487.4 510.6 495.0 512.2 Z"/><circle fill="#8bd46a" cx="478.4" cy="506.9" r="1.8"/><path fill="#8bd46a" d="M 506.4 504.0 Q 506.9 495.0 507.3 484.1 Q 505.9 495.0 504.9 503.9 Z"/><circle fill="#8bd46a" cx="506.9" cy="484.0" r="1.7"/><path fill="#8bd46a" d="M 514.4 510.3 Q 521.4 504.5 529.1 495.6 Q 521.0 503.6 513.7 508.8 Z"/><circle fill="#8bd46a" cx="531.7" cy="500.7" r="1.2"/><circle fill="#8bd46a" cx="502.1" cy="455.0" r="0.8"/><circle fill="#8bd46a" cx="554.4" cy="462.2" r="0.6"/><circle fill="#8bd46a" cx="478.6" cy="489.7" r="2.0"/><circle fill="#8bd46a" cx="529.1" cy="507.1" r="0.6"/><circle fill="#8bd46a" cx="479.2" cy="506.0" r="0.6"/><circle fill="#8bd46a" cx="520.5" cy="507.1" r="0.6"/><circle fill="#8bd46a" cx="470.9" cy="492.4" r="0.6"/><circle fill="#8bd46a" cx="500.2" cy="500.0" r="0.9"/><circle fill="#8bd46a" cx="532.8" cy="492.8" r="1.3"/><circle fill="#8bd46a" cx="533.9" cy="509.1" r="1.2"/><circle fill="#8bd46a" cx="456.8" cy="473.5" r="0.6"/><circle fill="#8bd46a" cx="552.2" cy="482.0" r="0.6"/><ellipse fill="#8bd46a" cx="518.3" cy="507.6" rx="4.4" ry="1.7" transform="rotate(-30 518.3 507.6)"/><path fill="#f5a623" d="M 724.8 250.0 C 725.7 250.8 728.5 253.4 728.0 253.9 C 727.5 254.4 721.5 252.5 721.2 253.8 C 720.8 255.1 725.9 262.5 725.5 263.0 C 725.1 263.5 719.7 256.9 718.4 257.3 C 717.0 257.7 717.1 264.7 716.0 265.9 C 714.9 267.1 712.4 266.1 710.8 266.0 C 709.2 266.0 705.1 267.0 704.8 265.4 C 704.5 263.9 709.2 256.8 708.9 255.2 C 708.6 253.6 702.8 255.1 702.7 254.3 C 702.5 253.6 707.8 251.2 707.8 250.0 C 707.8 248.8 702.4 246.4 702.7 245.7 C 702.9 245.0 708.9 246.6 709.3 245.1 C 709.7 243.7 705.0 236.0 705.6 235.6 C 706.2 235.2 712.0 241.3 713.5 242.3 C 715.0 243.3 714.9 243.5 716.0 242.4 C 717.1 241.3 720.3 234.4 721.0 234.5 C 721.8 234.5 720.9 241.4 721.3 242.7 C 721.7 244.1 723.9 243.5 723.9 244.2 C 724.0 245.0 721.5 247.4 721.6 248.2 C 721.7 249.0 723.9 249.2 724.8 250.0 Z"/><path fill="#f5a623" d="M 707.4 249.3 Q 700.6 249.3 692.4 249.2 Q 700.6 250.2 707.4 250.7 Z"/><circle fill="#f5a623" cx="692.4" cy="250.1" r="0.9"/><path fill="#f5a623" d="M 709.9 256.2 Q 702.1 264.2 691.6 273.4 Q 702.7 264.8 711.0 257.1 Z"/><circle fill="#f5a623" cx="694.5" cy="275.8" r="1.1"/><circle fill="#f5a623" cx="694.9" cy="255.5" r="1.0"/><circle fill="#f5a623" cx="696.5" cy="285.0" r="0.6"/><circle fill="#f5a623" cx="706.3" cy="269.9" r="1.9"/><circle fill="#f5a623" cx="683.9" cy="236.2" r="0.6"/><circle fill="#f5a623" cx="692.8" cy="284.5" r="0.6"/><circle fill="#f5a623" cx="700.6" cy="250.8" r="0.6"/><circle fill="#f5a623" cx="708.6" cy="239.5" r="2.8"/><circle fill="#f5a623" cx="701.7" cy="248.3" r="0.6"/><ellipse fill="#f5a623" cx="705.5" cy="239.1" rx="3.0" ry="1.2" transform="rotate(233 705.5 239.1)"/><circle fill="#f5a623" cx="718.0" cy="270.9" r="0.6"/><circle fill="#f5a623" cx="698.5" cy="258.2" r="0.6"/><circle fill="#f5a623" cx="702.4" cy="255.0" r="0.6"/></svg>